<mxfile host="app.diagrams.net" modified="2022-03-10T14:28:17.243Z" agent="5.0 (Macintosh; Intel Mac OS X 10_15_7) AppleWebKit/537.36 (KHTML, like Gecko) Chrome/98.0.4758.109 Safari/537.36" etag="wxfWYPnLZjpt37Z5rf01" version="17.1.0" type="github">
  <diagram id="QAgilQNdg-L14Pe8UvTv" name="第 1 页">
    <mxGraphModel dx="1042" dy="592" grid="1" gridSize="10" guides="1" tooltips="1" connect="1" arrows="1" fold="1" page="1" pageScale="1" pageWidth="827" pageHeight="1169" math="0" shadow="0">
      <root>
        <mxCell id="0" />
        <mxCell id="1" parent="0" />
        <mxCell id="s32qq4pIv4FlOu-_9SHv-4" style="edgeStyle=orthogonalEdgeStyle;rounded=0;orthogonalLoop=1;jettySize=auto;html=1;exitX=0.5;exitY=1;exitDx=0;exitDy=0;" edge="1" parent="1" source="s32qq4pIv4FlOu-_9SHv-1" target="s32qq4pIv4FlOu-_9SHv-3">
          <mxGeometry relative="1" as="geometry" />
        </mxCell>
        <mxCell id="s32qq4pIv4FlOu-_9SHv-1" value="浏览器" style="ellipse;whiteSpace=wrap;html=1;aspect=fixed;" vertex="1" parent="1">
          <mxGeometry x="110" y="160" width="80" height="80" as="geometry" />
        </mxCell>
        <mxCell id="s32qq4pIv4FlOu-_9SHv-7" style="edgeStyle=orthogonalEdgeStyle;rounded=0;orthogonalLoop=1;jettySize=auto;html=1;exitX=0.5;exitY=1;exitDx=0;exitDy=0;" edge="1" parent="1" source="s32qq4pIv4FlOu-_9SHv-2" target="s32qq4pIv4FlOu-_9SHv-6">
          <mxGeometry relative="1" as="geometry" />
        </mxCell>
        <mxCell id="s32qq4pIv4FlOu-_9SHv-2" value="trojan" style="ellipse;whiteSpace=wrap;html=1;aspect=fixed;" vertex="1" parent="1">
          <mxGeometry x="620" y="150" width="80" height="80" as="geometry" />
        </mxCell>
        <mxCell id="s32qq4pIv4FlOu-_9SHv-8" style="edgeStyle=orthogonalEdgeStyle;rounded=0;orthogonalLoop=1;jettySize=auto;html=1;exitX=1;exitY=0.5;exitDx=0;exitDy=0;entryX=0;entryY=0.5;entryDx=0;entryDy=0;" edge="1" parent="1" source="s32qq4pIv4FlOu-_9SHv-3" target="s32qq4pIv4FlOu-_9SHv-2">
          <mxGeometry relative="1" as="geometry" />
        </mxCell>
        <mxCell id="s32qq4pIv4FlOu-_9SHv-9" value="&lt;span style=&quot;color: rgb(46 , 46 , 46) ; font-family: &amp;#34;hei&amp;#34; ; font-size: 13px&quot;&gt;tls&lt;/span&gt;" style="edgeLabel;html=1;align=center;verticalAlign=middle;resizable=0;points=[];" vertex="1" connectable="0" parent="s32qq4pIv4FlOu-_9SHv-8">
          <mxGeometry x="-0.6737" relative="1" as="geometry">
            <mxPoint as="offset" />
          </mxGeometry>
        </mxCell>
        <mxCell id="s32qq4pIv4FlOu-_9SHv-10" value="&lt;span style=&quot;color: rgb(46 , 46 , 46) ; font-family: &amp;#34;hei&amp;#34; ; font-size: 13px&quot;&gt;tls&lt;br&gt;&lt;/span&gt;" style="edgeLabel;html=1;align=center;verticalAlign=middle;resizable=0;points=[];" vertex="1" connectable="0" parent="s32qq4pIv4FlOu-_9SHv-8">
          <mxGeometry x="0.6596" relative="1" as="geometry">
            <mxPoint as="offset" />
          </mxGeometry>
        </mxCell>
        <mxCell id="s32qq4pIv4FlOu-_9SHv-3" value="socks5" style="ellipse;whiteSpace=wrap;html=1;aspect=fixed;" vertex="1" parent="1">
          <mxGeometry x="110" y="290" width="80" height="80" as="geometry" />
        </mxCell>
        <mxCell id="s32qq4pIv4FlOu-_9SHv-5" value="GFW" style="rounded=0;whiteSpace=wrap;html=1;" vertex="1" parent="1">
          <mxGeometry x="384" y="80" width="60" height="410" as="geometry" />
        </mxCell>
        <mxCell id="s32qq4pIv4FlOu-_9SHv-6" value="Google" style="ellipse;whiteSpace=wrap;html=1;aspect=fixed;" vertex="1" parent="1">
          <mxGeometry x="620" y="290" width="80" height="80" as="geometry" />
        </mxCell>
      </root>
    </mxGraphModel>
  </diagram>
</mxfile>
